<svg width="24" height="25" viewBox="0 0 24 25" fill="none" xmlns="http://www.w3.org/2000/svg">
<g id="Frame" clip-path="url(#clip0_312_2951)">
<path id="Vector" d="M23.3337 17.5319C23.044 16.9029 22.4316 16.0133 21.1613 15.3222C19.8578 14.6147 18.7571 14.6271 16.804 14.6271H11.9585L7.37783 12.5581H0.533691V24.0285H12.4799L22.6137 19.4519C22.9654 19.2947 23.2427 18.9967 23.3792 18.6326C23.5116 18.2726 23.4951 17.8795 23.3337 17.5319ZM12.033 21.9595H2.60266V14.6271H6.93093L10.8371 16.394L10.7585 16.4147H6.76542V18.4836H11.0482L16.833 16.8367C17.9916 16.5057 19.2123 16.6174 20.1765 17.1388C20.6027 17.3705 20.8965 17.6271 21.0992 17.8629L12.033 21.9595Z" fill="#333333"/>
<path id="Vector_2" d="M19.5806 16.3112L18.0744 14.8961C19.3033 13.5885 19.982 11.8754 19.982 10.0795C19.982 6.20228 16.8247 3.04504 12.9475 3.04504C9.07024 3.04504 5.913 6.20228 5.913 10.0795C5.913 11.114 6.13231 12.1071 6.56265 13.0381L4.68403 13.9071C4.12707 12.7082 3.84031 11.4015 3.84403 10.0795C3.84403 5.06021 7.92817 0.976074 12.9475 0.976074C17.9668 0.976074 22.0509 5.06021 22.0509 10.0795C22.0509 12.4009 21.1737 14.6147 19.5806 16.3112Z" fill="#333333"/>
<path id="Vector_3" d="M16.4648 9.66132V8.00615H15.0165L16.3448 6.67787L15.1779 5.50684L13.2579 7.42684L11.3379 5.50684L10.1669 6.67787L11.4952 8.00615H10.051V9.66132H12.4303V10.4889H10.051V12.1441H12.4303V14.213H14.0855V12.1441H16.4648V10.4889H14.0855V9.66132H16.4648Z" fill="#BDBCBC"/>
</g>
<defs>
<clipPath id="clip0_312_2951">
<rect width="24" height="24" fill="white" transform="translate(0 0.5)"/>
</clipPath>
</defs>
</svg>
