<svg width="24" height="25" viewBox="0 0 24 25" fill="none" xmlns="http://www.w3.org/2000/svg">
<g id="Frame" clip-path="url(#clip0_312_2956)">
<path id="&#229;&#189;&#162;&#231;&#138;&#182;" d="M9.33126 3.3736C10.9115 2.2088 13.0885 2.2088 14.6687 3.3736L20.3837 7.58603C21.4049 8.33873 22 9.51481 22 10.7574V17.5296C22 19.7062 20.1999 21.5 17.9425 21.5H6.05747C3.80008 21.5 2 19.7062 2 17.5296V10.7574C2 9.51481 2.59513 8.33873 3.61632 7.58603L9.33126 3.3736Z" stroke="#333333" stroke-width="2"/>
<g id="&#229;&#189;&#162;&#231;&#138;&#182;_2">
<mask id="path-2-inside-1_312_2956" fill="white">
<path d="M9.47134 14.5H14.5288C15.0033 14.5002 15.3932 14.8681 15.4127 15.334C15.4323 15.7999 15.0745 16.1981 14.6016 16.2367L14.5288 16.2396H9.47134C8.99687 16.2394 8.60697 15.8715 8.58743 15.4056C8.5679 14.9397 8.92567 14.5416 9.39851 14.503L9.47134 14.5Z"/>
</mask>
<path d="M14.5288 14.5L14.5297 12.5H14.5288V14.5ZM9.47134 14.5V12.5H9.43042L9.38954 12.5017L9.47134 14.5ZM9.39851 14.503L9.31671 12.5047L9.27624 12.5063L9.23587 12.5096L9.39851 14.503ZM8.58743 15.4056L10.5857 15.3218L8.58743 15.4056ZM9.47134 16.2396L9.47046 18.2396H9.47134V16.2396ZM14.5288 16.2396V18.2396H14.5698L14.6107 18.238L14.5288 16.2396ZM14.6016 16.2367L14.6835 18.235L14.7239 18.2333L14.7643 18.23L14.6016 16.2367ZM15.4127 15.334L17.411 15.2502L15.4127 15.334ZM14.5288 12.5H9.47134V16.5H14.5288V12.5ZM9.38954 12.5017L9.31671 12.5047L9.48032 16.5013L9.55314 16.4983L9.38954 12.5017ZM9.23587 12.5096C7.72338 12.633 6.52338 13.9202 6.58919 15.4894L10.5857 15.3218C10.6124 15.9593 10.128 16.4501 9.56116 16.4964L9.23587 12.5096ZM6.58919 15.4894C6.65491 17.0566 7.95516 18.239 9.47046 18.2396L9.47223 14.2396C10.0386 14.2399 10.559 14.6865 10.5857 15.3218L6.58919 15.4894ZM9.47134 18.2396H14.5288V14.2396H9.47134V18.2396ZM14.6107 18.238L14.6835 18.235L14.5198 14.2383L14.447 14.2413L14.6107 18.238ZM14.7643 18.23C16.2768 18.1066 17.4768 16.8195 17.411 15.2502L13.4145 15.4178C13.3877 14.7804 13.8722 14.2895 14.439 14.2433L14.7643 18.23ZM17.411 15.2502C17.3452 13.6831 16.045 12.5007 14.5297 12.5L14.5279 16.5C13.9616 16.4997 13.4411 16.0531 13.4145 15.4178L17.411 15.2502Z" fill="#BDBCBC" mask="url(#path-2-inside-1_312_2956)"/>
</g>
</g>
<defs>
<clipPath id="clip0_312_2956">
<rect width="24" height="24" fill="white" transform="translate(0 0.5)"/>
</clipPath>
</defs>
</svg>
