<svg width="24" height="24" viewBox="0 0 24 24" fill="none" xmlns="http://www.w3.org/2000/svg">
<g id="Frame" clip-path="url(#clip0_312_2903)">
<path id="&#229;&#189;&#162;&#231;&#138;&#182;" d="M9.33126 2.8736C10.9115 1.7088 13.0885 1.7088 14.6687 2.8736L20.3837 7.08603C21.4049 7.83873 22 9.01481 22 10.2574V17.0296C22 19.2062 20.1999 21 17.9425 21H6.05747C3.80008 21 2 19.2062 2 17.0296V10.2574C2 9.01481 2.59513 7.83873 3.61632 7.08603L9.33126 2.8736Z" stroke="#1C72EA" stroke-width="2"/>
<g id="&#229;&#189;&#162;&#231;&#138;&#182;_2">
<mask id="path-2-inside-1_312_2903" fill="white">
<path d="M9.47134 14H14.5288C15.0033 14.0002 15.3932 14.3681 15.4127 14.834C15.4323 15.2999 15.0745 15.6981 14.6016 15.7367L14.5288 15.7396H9.47134C8.99687 15.7394 8.60697 15.3715 8.58743 14.9056C8.5679 14.4397 8.92567 14.0416 9.39851 14.003L9.47134 14Z"/>
</mask>
<path d="M14.5288 14L14.5297 12H14.5288V14ZM9.47134 14V12H9.43042L9.38954 12.0017L9.47134 14ZM9.39851 14.003L9.31671 12.0047L9.27624 12.0063L9.23587 12.0096L9.39851 14.003ZM8.58743 14.9056L10.5857 14.8218L8.58743 14.9056ZM9.47134 15.7396L9.47046 17.7396H9.47134V15.7396ZM14.5288 15.7396V17.7396H14.5698L14.6107 17.738L14.5288 15.7396ZM14.6016 15.7367L14.6835 17.735L14.7239 17.7333L14.7643 17.73L14.6016 15.7367ZM15.4127 14.834L17.411 14.7502L15.4127 14.834ZM14.5288 12H9.47134V16H14.5288V12ZM9.38954 12.0017L9.31671 12.0047L9.48032 16.0013L9.55314 15.9983L9.38954 12.0017ZM9.23587 12.0096C7.72338 12.133 6.52338 13.4202 6.58919 14.9894L10.5857 14.8218C10.6124 15.4593 10.128 15.9501 9.56116 15.9964L9.23587 12.0096ZM6.58919 14.9894C6.65491 16.5566 7.95516 17.739 9.47046 17.7396L9.47223 13.7396C10.0386 13.7399 10.559 14.1865 10.5857 14.8218L6.58919 14.9894ZM9.47134 17.7396H14.5288V13.7396H9.47134V17.7396ZM14.6107 17.738L14.6835 17.735L14.5198 13.7383L14.447 13.7413L14.6107 17.738ZM14.7643 17.73C16.2768 17.6066 17.4768 16.3195 17.411 14.7502L13.4145 14.9178C13.3877 14.2804 13.8722 13.7895 14.439 13.7433L14.7643 17.73ZM17.411 14.7502C17.3452 13.1831 16.045 12.0007 14.5297 12L14.5279 16C13.9616 15.9997 13.4411 15.5531 13.4145 14.9178L17.411 14.7502Z" fill="#1C72EA" mask="url(#path-2-inside-1_312_2903)"/>
</g>
</g>
<defs>
<clipPath id="clip0_312_2903">
<rect width="24" height="24" fill="white"/>
</clipPath>
</defs>
</svg>
