<svg width="24" height="23" viewBox="0 0 24 23" fill="none" xmlns="http://www.w3.org/2000/svg">
<g id="path-9-Clipped">
<g id="&#231;&#188;&#150;&#231;&#187;&#132;">
<path id="&#229;&#189;&#162;&#231;&#138;&#182;" d="M12 0.5C18.075 0.5 23 5.42497 23 11.5C23 17.575 18.075 22.5 12 22.5C5.92497 22.5 1 17.575 1 11.5C1 5.42497 5.92497 0.5 12 0.5ZM12 2.27011C6.90207 2.27011 2.77011 6.40207 2.77011 11.5C2.77011 16.5979 6.90207 20.7299 12 20.7299C17.0979 20.7299 21.2299 16.5979 21.2299 11.5C21.2299 6.40207 17.0979 2.27011 12 2.27011Z" fill="#333333" stroke="#333333" stroke-width="0.5"/>
<g id="&#229;&#189;&#162;&#231;&#138;&#182;_2">
<path d="M8.05209 8.89164C8.01044 8.30952 7.52609 7.8585 6.94248 7.8584C6.64739 7.8584 6.36438 7.97562 6.15572 8.18428C5.94706 8.39295 5.82983 8.67595 5.82983 8.97104V9.98254L5.83287 10.0619C5.87698 10.6583 6.38459 11.1132 6.98221 11.0918C7.57983 11.0704 8.05369 10.5805 8.05512 9.98254V8.97104L8.05209 8.89164Z" fill="#BDBCBC"/>
<path d="M15.1325 8.89164C15.0909 8.30952 14.6065 7.8585 14.0229 7.8584C13.4084 7.8584 12.9103 8.35655 12.9103 8.97104V9.98254L12.9133 10.0619C12.9574 10.6583 13.4651 11.1132 14.0627 11.0918C14.6603 11.0704 15.1341 10.5805 15.1356 9.98254V8.97104L15.1325 8.89164Z" fill="#BDBCBC"/>
<path d="M8.05209 8.89164C8.01044 8.30952 7.52609 7.8585 6.94248 7.8584C6.64739 7.8584 6.36438 7.97562 6.15572 8.18428C5.94706 8.39295 5.82983 8.67595 5.82983 8.97104V9.98254L5.83287 10.0619C5.87698 10.6583 6.38459 11.1132 6.98221 11.0918C7.57983 11.0704 8.05369 10.5805 8.05512 9.98254V8.97104L8.05209 8.89164Z" stroke="#BDBCBC"/>
<path d="M15.1325 8.89164C15.0909 8.30952 14.6065 7.8585 14.0229 7.8584C13.4084 7.8584 12.9103 8.35655 12.9103 8.97104V9.98254L12.9133 10.0619C12.9574 10.6583 13.4651 11.1132 14.0627 11.0918C14.6603 11.0704 15.1341 10.5805 15.1356 9.98254V8.97104L15.1325 8.89164Z" stroke="#BDBCBC"/>
</g>
</g>
</g>
</svg>
